<?xml version="1.0" encoding="utf-8"?><svg xmlns="http://www.w3.org/2000/svg" xmlns:xlink="http://www.w3.org/1999/xlink"><symbol viewBox="0 0 981.647 981.647" id="key" xmlns="http://www.w3.org/2000/svg"><path d="M941.213 125.447l-140.601-107c-39.5-30.2-96-22.5-126.1 17.1l-330.799 434.5c-24.8-7.7-50.7-11.601-76.9-11.601-11.8 0-23.7.8-35.4 2.4-69.2 9.399-130.7 45.201-173 100.8-42.3 55.5-60.4 124.2-51.1 193.5 8.6 63.1 39.7 120.8 87.8 162.5 47.6 41.3 108.4 64 171.2 64 11.8 0 23.7-.8 35.4-2.4 69.2-9.399 130.7-45.199 173-100.8 42.299-55.6 60.5-124.3 51.099-193.6-5.2-38-18.5-74-38.799-105.8l125.599-165 70.801 53.899c16.3 12.4 35.399 18.4 54.399 18.4 27.101 0 54-12.2 71.7-35.5 30.1-39.601 22.5-96-17.1-126.1l-70.801-53.9 41.601-54.7 69 52.5c16.3 12.4 35.399 18.4 54.399 18.4 27.101 0 54-12.2 71.7-35.5 30.103-39.598 22.502-95.998-17.098-126.098zM277.514 800.848c-3.7.5-7.5.8-11.2.8-40.5 0-75.2-30.4-80.6-70.6 0-.4-.1-.7-.1-1.101-5.4-44.2 25.8-84.7 70-90.7 3.7-.5 7.5-.8 11.2-.8 40.5 0 75.2 30.4 80.601 70.601 2.899 21.6-2.7 43-15.9 60.399-13 17.101-31.8 28.2-53.1 31.3-.301 0-.602 0-.901.101z"/></symbol><symbol viewBox="0 0 97.713 97.713" id="location" xmlns="http://www.w3.org/2000/svg"><path d="M48.855 0C29.021 0 12.883 16.138 12.883 35.974c0 5.174 1.059 10.114 3.146 14.684 8.994 19.681 26.238 40.46 31.31 46.359a2.003 2.003 0 003.034 0c5.07-5.898 22.314-26.676 31.311-46.359 2.088-4.57 3.146-9.51 3.146-14.684C84.828 16.138 68.69 0 48.855 0zm0 54.659c-10.303 0-18.686-8.383-18.686-18.686 0-10.304 8.383-18.687 18.686-18.687s18.686 8.383 18.686 18.687c.001 10.303-8.382 18.686-18.686 18.686z"/></symbol><symbol viewBox="0 0 384 384" id="logout" xmlns="http://www.w3.org/2000/svg"><path d="M341.333 0H42.667C19.093 0 0 19.093 0 42.667V128h42.667V42.667h298.667v298.667H42.667V256H0v85.333C0 364.907 19.093 384 42.667 384h298.667C364.907 384 384 364.907 384 341.333V42.667C384 19.093 364.907 0 341.333 0z"/><path d="M151.147 268.48l30.186 30.187L288 192 181.333 85.333l-30.186 30.187 55.146 55.147H0v42.666h206.293z"/></symbol><symbol viewBox="0 0 511.626 511.626" id="mail" xmlns="http://www.w3.org/2000/svg"><path d="M49.106 178.729c6.472 4.567 25.981 18.131 58.528 40.685 32.548 22.554 57.482 39.92 74.803 52.099 1.903 1.335 5.946 4.237 12.131 8.71 6.186 4.476 11.326 8.093 15.416 10.852 4.093 2.758 9.041 5.852 14.849 9.277 5.806 3.422 11.279 5.996 16.418 7.7 5.14 1.718 9.898 2.569 14.275 2.569h.575c4.377 0 9.137-.852 14.277-2.569 5.137-1.704 10.615-4.281 16.416-7.7 5.804-3.429 10.752-6.52 14.845-9.277 4.093-2.759 9.229-6.376 15.417-10.852 6.184-4.477 10.232-7.375 12.135-8.71 17.508-12.179 62.051-43.11 133.615-92.79 13.894-9.703 25.502-21.411 34.827-35.116 9.332-13.699 13.993-28.07 13.993-43.105 0-12.564-4.523-23.319-13.565-32.264-9.041-8.947-19.749-13.418-32.117-13.418H45.679c-14.655 0-25.933 4.948-33.832 14.844C3.949 79.562 0 91.934 0 106.779c0 11.991 5.236 24.985 15.703 38.974 10.466 13.99 21.604 24.983 33.403 32.976z"/><path d="M483.072 209.275c-62.424 42.251-109.824 75.087-142.177 98.501-10.849 7.991-19.65 14.229-26.409 18.699-6.759 4.473-15.748 9.041-26.98 13.702-11.228 4.668-21.692 6.995-31.401 6.995h-.578c-9.707 0-20.177-2.327-31.405-6.995-11.228-4.661-20.223-9.229-26.98-13.702-6.755-4.47-15.559-10.708-26.407-18.699-25.697-18.842-72.995-51.68-141.896-98.501C17.987 202.047 8.375 193.762 0 184.437v226.685c0 12.57 4.471 23.319 13.418 32.265 8.945 8.949 19.701 13.422 32.264 13.422h420.266c12.56 0 23.315-4.473 32.261-13.422 8.949-8.949 13.418-19.694 13.418-32.265V184.437c-8.186 9.132-17.7 17.417-28.555 24.838z"/></symbol><symbol viewBox="0 0 401.998 401.998" id="prone" xmlns="http://www.w3.org/2000/svg"><path d="M401.129 311.475c-1.137-3.426-8.371-8.473-21.697-15.129-3.61-2.098-8.754-4.949-15.41-8.566a1437.412 1437.412 0 01-18.13-9.996 605.612 605.612 0 01-15.276-8.846c-.76-.571-3.139-2.234-7.136-5-4.001-2.758-7.375-4.805-10.14-6.14-2.759-1.327-5.473-1.995-8.138-1.995-3.806 0-8.56 2.714-14.268 8.135a139.01 139.01 0 00-15.7 17.706c-4.757 6.379-9.802 12.275-15.126 17.7-5.332 5.427-9.713 8.138-13.135 8.138-1.718 0-3.86-.479-6.427-1.424-2.566-.951-4.518-1.766-5.858-2.423-1.328-.671-3.607-1.999-6.845-4.004-3.244-1.999-5.048-3.094-5.428-3.285-26.075-14.469-48.438-31.029-67.093-49.676-18.649-18.658-35.211-41.019-49.676-67.097-.19-.381-1.287-2.19-3.284-5.424-2-3.237-3.333-5.518-3.999-6.854-.666-1.331-1.475-3.283-2.425-5.852s-1.427-4.709-1.427-6.424c0-3.424 2.713-7.804 8.138-13.134 5.424-5.327 11.326-10.373 17.7-15.128a138.95 138.95 0 0017.701-15.699c5.424-5.711 8.136-10.467 8.136-14.273 0-2.663-.666-5.378-1.997-8.137-1.332-2.765-3.378-6.139-6.139-10.138-2.762-3.997-4.427-6.374-4.999-7.139a627.13 627.13 0 01-8.848-15.271 1441.4 1441.4 0 01-9.995-18.131c-3.615-6.658-6.468-11.799-8.564-15.415C98.986 9.233 93.943 1.997 90.516.859 89.183.288 87.183 0 84.521 0c-5.142 0-11.85.95-20.129 2.856-8.282 1.903-14.799 3.899-19.558 5.996-9.517 3.995-19.604 15.605-30.264 34.826C4.863 61.566.01 79.271.01 96.78c0 5.135.333 10.131.999 14.989.666 4.853 1.856 10.326 3.571 16.418 1.712 6.09 3.093 10.614 4.137 13.56 1.045 2.948 2.996 8.229 5.852 15.845 2.852 7.614 4.567 12.275 5.138 13.988 6.661 18.654 14.56 35.307 23.695 49.964 15.03 24.362 35.541 49.539 61.521 75.521 25.981 25.98 51.153 46.49 75.517 61.526 14.655 9.134 31.314 17.032 49.965 23.698 1.714.568 6.375 2.279 13.986 5.141 7.614 2.854 12.897 4.805 15.845 5.852 2.949 1.048 7.474 2.43 13.559 4.145 6.098 1.715 11.566 2.905 16.419 3.576 4.856.657 9.853.996 14.989.996 17.508 0 35.214-4.856 53.105-14.562 19.219-10.656 30.826-20.745 34.823-30.269 2.102-4.754 4.093-11.273 5.996-19.555 1.909-8.278 2.857-14.985 2.857-20.126.006-2.673-.281-4.668-.855-6.012z"/></symbol><symbol viewBox="0 0 31.49 31.49" id="right-arrow" xmlns="http://www.w3.org/2000/svg"><path d="M21.205 5.007a1.112 1.112 0 00-1.587 0 1.12 1.12 0 000 1.571l8.047 8.047H1.111A1.106 1.106 0 000 15.737c0 .619.492 1.127 1.111 1.127h26.554l-8.047 8.032c-.429.444-.429 1.159 0 1.587a1.112 1.112 0 001.587 0l9.952-9.952a1.093 1.093 0 000-1.571l-9.952-9.953z"/></symbol><symbol viewBox="0 0 0 0" id="sprite" xmlns="http://www.w3.org/2000/svg"/><symbol viewBox="0 0 515.556 515.556" id="user" xmlns="http://www.w3.org/2000/svg"><path d="M348.918 37.751c50.334 50.334 50.334 131.942 0 182.276s-131.942 50.334-182.276 0-50.334-131.942 0-182.276c50.334-50.335 131.942-50.335 182.276 0m106.568 312.918c-117.498-79.391-277.917-79.391-395.415 0-17.433 11.769-27.848 31.656-27.848 53.211v111.676h451.111V403.88c0-21.555-10.416-41.442-27.848-53.211z"/></symbol></svg>